<mxfile host="app.diagrams.net" agent="Mozilla/5.0 (Macintosh; Intel Mac OS X 10_15_7) AppleWebKit/537.36 (KHTML, like Gecko) Chrome/136.0.0.0 Safari/537.36" version="27.0.6">
  <diagram id="VpCEQJAqlgDtpodFDBYa" name="Page-2">
    <mxGraphModel dx="823" dy="560" grid="1" gridSize="10" guides="1" tooltips="1" connect="1" arrows="1" fold="1" page="1" pageScale="1" pageWidth="1600" pageHeight="900" math="0" shadow="0">
      <root>
        <mxCell id="0" />
        <mxCell id="1" parent="0" />
        <mxCell id="8_pUSFllD1DwEgH2rtGG-2" value="" style="shape=image;verticalLabelPosition=bottom;labelBackgroundColor=default;verticalAlign=top;aspect=fixed;imageAspect=0;image=https://upload.wikimedia.org/wikipedia/commons/thumb/1/18/Dog_Breeds.jpg/1024px-Dog_Breeds.jpg;imageBorder=none;strokeWidth=3;fontFamily=Helvetica;" parent="1" vertex="1">
          <mxGeometry x="240" y="286" width="64" height="48" as="geometry" />
        </mxCell>
        <mxCell id="8_pUSFllD1DwEgH2rtGG-6" value="&lt;i&gt;X&#39;&lt;/i&gt;" style="text;html=1;align=center;verticalAlign=middle;resizable=0;points=[];autosize=1;strokeColor=none;fillColor=none;fontFamily=Helvetica;" parent="1" vertex="1">
          <mxGeometry x="380" y="390" width="30" height="30" as="geometry" />
        </mxCell>
        <mxCell id="8_pUSFllD1DwEgH2rtGG-10" value="&lt;font style=&quot;font-size: 14px;&quot;&gt;Adversarial&amp;nbsp;&lt;/font&gt;&lt;div&gt;&lt;font style=&quot;font-size: 14px;&quot;&gt;Attack&lt;/font&gt;&lt;div&gt;&lt;font style=&quot;&quot;&gt;&lt;span style=&quot;font-size: 14px;&quot;&gt;í µí»¿&lt;/span&gt;&lt;/font&gt;&lt;/div&gt;&lt;/div&gt;" style="text;html=1;align=center;verticalAlign=middle;resizable=0;points=[];autosize=1;strokeColor=#82b366;fillColor=#d5e8d4;rotation=-90;fontFamily=Helvetica;" parent="1" vertex="1">
          <mxGeometry x="411" y="322" width="100" height="60" as="geometry" />
        </mxCell>
        <mxCell id="8_pUSFllD1DwEgH2rtGG-18" value="&lt;font&gt;Distribution Shift&lt;/font&gt;" style="text;html=1;align=center;verticalAlign=middle;resizable=0;points=[];autosize=1;strokeColor=none;fillColor=none;fontFamily=Helvetica;" parent="1" vertex="1">
          <mxGeometry x="392" y="220" width="110" height="30" as="geometry" />
        </mxCell>
        <mxCell id="8_pUSFllD1DwEgH2rtGG-24" value="&lt;i&gt;X&lt;/i&gt;" style="text;html=1;align=center;verticalAlign=middle;resizable=0;points=[];autosize=1;strokeColor=none;fillColor=none;fontFamily=Helvetica;" parent="1" vertex="1">
          <mxGeometry x="263" y="352" width="30" height="30" as="geometry" />
        </mxCell>
        <mxCell id="8_pUSFllD1DwEgH2rtGG-29" value="&lt;font&gt;Distribution Shift&lt;/font&gt;" style="text;html=1;align=center;verticalAlign=middle;resizable=0;points=[];autosize=1;strokeColor=none;fillColor=none;fontFamily=Helvetica;" parent="1" vertex="1">
          <mxGeometry x="406" y="458.53" width="110" height="30" as="geometry" />
        </mxCell>
        <mxCell id="8_pUSFllD1DwEgH2rtGG-30" value="" style="shape=curlyBracket;whiteSpace=wrap;html=1;rounded=1;labelPosition=left;verticalLabelPosition=middle;align=right;verticalAlign=middle;rotation=-180;strokeWidth=1;fontFamily=Helvetica;" parent="1" vertex="1">
          <mxGeometry x="547" y="307" width="20" height="90" as="geometry" />
        </mxCell>
        <mxCell id="8_pUSFllD1DwEgH2rtGG-31" value="" style="shape=curlyBracket;whiteSpace=wrap;html=1;rounded=1;labelPosition=left;verticalLabelPosition=middle;align=right;verticalAlign=middle;rotation=90;strokeWidth=1;fontFamily=Helvetica;" parent="1" vertex="1">
          <mxGeometry x="442.65" y="204.5" width="20" height="170" as="geometry" />
        </mxCell>
        <mxCell id="8_pUSFllD1DwEgH2rtGG-33" value="" style="endArrow=block;html=1;rounded=0;endFill=1;strokeWidth=1;fontFamily=Helvetica;" parent="1" edge="1">
          <mxGeometry width="50" height="50" relative="1" as="geometry">
            <mxPoint x="491" y="392.67" as="sourcePoint" />
            <mxPoint x="515" y="392.67" as="targetPoint" />
          </mxGeometry>
        </mxCell>
        <mxCell id="8_pUSFllD1DwEgH2rtGG-37" value="" style="endArrow=block;html=1;rounded=0;endFill=1;strokeWidth=1;fontFamily=Helvetica;" parent="1" edge="1">
          <mxGeometry width="50" height="50" relative="1" as="geometry">
            <mxPoint x="491" y="320.67" as="sourcePoint" />
            <mxPoint x="515" y="320.67" as="targetPoint" />
          </mxGeometry>
        </mxCell>
        <mxCell id="8_pUSFllD1DwEgH2rtGG-38" value="" style="shape=curlyBracket;whiteSpace=wrap;html=1;rounded=1;labelPosition=left;verticalLabelPosition=middle;align=right;verticalAlign=middle;rotation=-90;strokeWidth=1;fontFamily=Helvetica;" parent="1" vertex="1">
          <mxGeometry x="448.07" y="358.08" width="20" height="130.45" as="geometry" />
        </mxCell>
        <mxCell id="8_pUSFllD1DwEgH2rtGG-40" value="&lt;font style=&quot;color: rgb(255, 0, 0);&quot;&gt;Consistency&lt;/font&gt;" style="text;html=1;align=center;verticalAlign=middle;resizable=0;points=[];autosize=1;strokeColor=none;fillColor=none;fontFamily=Helvetica;" parent="1" vertex="1">
          <mxGeometry x="405" y="255" width="90" height="30" as="geometry" />
        </mxCell>
        <mxCell id="8_pUSFllD1DwEgH2rtGG-41" value="&lt;font style=&quot;color: rgb(255, 0, 0);&quot;&gt;Consistency&lt;/font&gt;" style="text;html=1;align=center;verticalAlign=middle;resizable=0;points=[];autosize=1;strokeColor=none;fillColor=none;fontFamily=Helvetica;" parent="1" vertex="1">
          <mxGeometry x="406.15" y="425" width="90" height="30" as="geometry" />
        </mxCell>
        <mxCell id="8_pUSFllD1DwEgH2rtGG-42" value="&lt;span style=&quot;font-weight: normal;&quot;&gt;&lt;font style=&quot;color: rgb(255, 0, 0);&quot;&gt;Consistency&lt;/font&gt;&lt;/span&gt;" style="text;html=1;align=center;verticalAlign=middle;resizable=0;points=[];autosize=1;strokeColor=none;fillColor=none;rotation=90;fontFamily=Helvetica;fontStyle=1" parent="1" vertex="1">
          <mxGeometry x="531" y="337" width="90" height="30" as="geometry" />
        </mxCell>
        <mxCell id="RvTEcO8y19z6TE0oX2sb-5" value="&lt;b&gt;x +&amp;nbsp;&lt;span style=&quot;font-size: 14px;&quot;&gt;í µí»¿&lt;/span&gt;&lt;/b&gt;" style="text;html=1;align=center;verticalAlign=middle;resizable=0;points=[];autosize=1;strokeColor=none;fillColor=none;fontFamily=Helvetica;" vertex="1" parent="1">
          <mxGeometry x="504" y="295" width="50" height="30" as="geometry" />
        </mxCell>
        <mxCell id="RvTEcO8y19z6TE0oX2sb-6" value="&lt;i&gt;X&#39; +&amp;nbsp;&lt;b style=&quot;font-size: 14px;&quot;&gt;í µí»¿&lt;/b&gt;&lt;/i&gt;" style="text;html=1;align=center;verticalAlign=middle;resizable=0;points=[];autosize=1;strokeColor=none;fillColor=none;fontFamily=Helvetica;" vertex="1" parent="1">
          <mxGeometry x="507" y="377.5" width="50" height="30" as="geometry" />
        </mxCell>
        <mxCell id="RvTEcO8y19z6TE0oX2sb-7" value="T" style="rounded=0;whiteSpace=wrap;html=1;fontFamily=Helvetica;fillColor=#ffe6cc;strokeColor=#d79b00;" vertex="1" parent="1">
          <mxGeometry x="318" y="375" width="53" height="35" as="geometry" />
        </mxCell>
        <mxCell id="RvTEcO8y19z6TE0oX2sb-15" value="" style="endArrow=classic;html=1;rounded=0;entryX=-0.069;entryY=0.705;entryDx=0;entryDy=0;entryPerimeter=0;fontFamily=Helvetica;" edge="1" parent="1">
          <mxGeometry width="50" height="50" relative="1" as="geometry">
            <mxPoint x="272" y="390" as="sourcePoint" />
            <mxPoint x="318.3430000000001" y="389.67500000000007" as="targetPoint" />
          </mxGeometry>
        </mxCell>
        <mxCell id="RvTEcO8y19z6TE0oX2sb-16" value="" style="endArrow=none;html=1;rounded=0;entryX=0.5;entryY=1;entryDx=0;entryDy=0;curved=1;fontFamily=Helvetica;" edge="1" parent="1" target="8_pUSFllD1DwEgH2rtGG-2">
          <mxGeometry width="50" height="50" relative="1" as="geometry">
            <mxPoint x="272" y="390" as="sourcePoint" />
            <mxPoint x="323" y="340" as="targetPoint" />
          </mxGeometry>
        </mxCell>
        <mxCell id="RvTEcO8y19z6TE0oX2sb-17" value="" style="endArrow=classic;html=1;rounded=0;fontFamily=Helvetica;" edge="1" parent="1">
          <mxGeometry width="50" height="50" relative="1" as="geometry">
            <mxPoint x="371.65999999999997" y="392.49499999999995" as="sourcePoint" />
            <mxPoint x="430" y="392" as="targetPoint" />
          </mxGeometry>
        </mxCell>
        <mxCell id="RvTEcO8y19z6TE0oX2sb-19" value="&lt;b&gt;x&lt;/b&gt;" style="text;html=1;align=center;verticalAlign=middle;resizable=0;points=[];autosize=1;strokeColor=none;fillColor=none;fontFamily=Helvetica;" vertex="1" parent="1">
          <mxGeometry x="352" y="295" width="30" height="30" as="geometry" />
        </mxCell>
        <mxCell id="RvTEcO8y19z6TE0oX2sb-20" value="" style="endArrow=classic;html=1;rounded=0;exitX=1;exitY=0.75;exitDx=0;exitDy=0;fontFamily=Helvetica;" edge="1" parent="1" source="8_pUSFllD1DwEgH2rtGG-2">
          <mxGeometry width="50" height="50" relative="1" as="geometry">
            <mxPoint x="450" y="350" as="sourcePoint" />
            <mxPoint x="430" y="322" as="targetPoint" />
          </mxGeometry>
        </mxCell>
        <mxCell id="RvTEcO8y19z6TE0oX2sb-23" value="" style="curved=1;endArrow=classic;html=1;rounded=0;entryX=0.473;entryY=0.111;entryDx=0;entryDy=0;entryPerimeter=0;dashed=1;dashPattern=8 8;fontFamily=Helvetica;" edge="1" parent="1">
          <mxGeometry width="50" height="50" relative="1" as="geometry">
            <mxPoint x="373.33" y="279" as="sourcePoint" />
            <mxPoint x="529.9799999999999" y="282.3299999999999" as="targetPoint" />
            <Array as="points">
              <mxPoint x="399" y="254" />
              <mxPoint x="472" y="234" />
            </Array>
          </mxGeometry>
        </mxCell>
        <mxCell id="RvTEcO8y19z6TE0oX2sb-24" value="" style="curved=1;endArrow=classic;html=1;rounded=0;dashed=1;dashPattern=12 12;fontFamily=Helvetica;" edge="1" parent="1">
          <mxGeometry width="50" height="50" relative="1" as="geometry">
            <mxPoint x="392.65" y="425.5" as="sourcePoint" />
            <mxPoint x="540" y="418" as="targetPoint" />
            <Array as="points">
              <mxPoint x="410" y="450" />
              <mxPoint x="480" y="478" />
            </Array>
          </mxGeometry>
        </mxCell>
      </root>
    </mxGraphModel>
  </diagram>
</mxfile>
